<svg version="1.0" xmlns="http://www.w3.org/2000/svg" viewBox="0 0 700 700"><path d="m132 156-12 16-21 32-34 49-44 65-21 32 12 18 73 107 32 48 14 21h106l-8-13a754 754 0 0 1-21-31l-28-41-64-96-9-13 12-18 29-43 26-38 26-39a5976 5976 0 0 1 37-56H132zM465 156l-2 1 10 15 22 32 27 41 18 26 11 16 26 39 16 24-13 20-52 76-26 39-27 41-12 18h105l2-2 15-22 32-47 37-54 32-48 14-21-3-5-4-6-1-1-11-16-55-82-31-45a1413 1413 0 0 0-25-38l-52-1h-53z"/><path d="m374 316-97 97-37-37-38-37-21 21-22 22c-1 2 7 11 58 62l60 59 120-120 119-119-22-23-23-22-97 97z"/></svg>