<?xml version="1.0" standalone="no"?>
<!DOCTYPE svg PUBLIC "-//W3C//DTD SVG 20010904//EN"
 "http://www.w3.org/TR/2001/REC-SVG-20010904/DTD/svg10.dtd">
<svg version="1.0" xmlns="http://www.w3.org/2000/svg"
 width="700.000000pt" height="700.000000pt" viewBox="0 0 700.000000 700.000000"
 preserveAspectRatio="xMidYMid meet">
<metadata>
Created by potrace 1.11, written by Peter Selinger 2001-2013
</metadata>
<g transform="translate(0.000000,700.000000) scale(0.100000,-0.100000)"
fill="#000000" stroke="none">
<path d="M1315 5437 c-8 -4 -60 -76 -116 -160 -56 -84 -153 -226 -214 -317
-62 -91 -212 -313 -334 -495 -122 -181 -319 -473 -437 -648 l-214 -317 123
-183 c121 -179 366 -541 722 -1069 99 -147 245 -363 323 -480 l144 -213 529 0
c291 0 529 3 529 7 0 4 -37 61 -82 128 -46 67 -90 132 -98 145 -8 14 -58 89
-112 167 -53 79 -177 262 -275 408 -422 626 -562 833 -646 958 l-89 133 119
177 c66 97 196 290 288 427 93 138 210 311 260 385 50 74 168 248 260 385 93
138 215 319 273 403 57 85 101 156 98 160 -9 8 -1035 8 -1051 -1z"/>
<path d="M4653 5442 c-13 -2 -23 -5 -23 -8 0 -2 45 -71 100 -152 125 -184 103
-152 221 -327 56 -82 178 -264 273 -405 94 -140 175 -259 179 -265 4 -5 53
-77 109 -160 55 -82 172 -257 260 -388 l160 -237 -133 -198 c-282 -419 -406
-603 -514 -762 -61 -91 -181 -268 -267 -395 -85 -126 -207 -308 -272 -403 -64
-95 -115 -176 -112 -180 2 -4 239 -7 527 -6 l522 0 21 26 c12 13 78 110 148
214 69 104 211 315 315 469 104 154 269 399 368 545 98 146 243 361 322 478
l144 213 -35 50 c-20 27 -36 53 -36 58 0 5 -3 11 -7 13 -5 2 -53 71 -109 153
-103 154 -300 446 -556 825 -79 118 -216 321 -303 450 -87 129 -173 256 -192
281 -18 26 -33 50 -33 54 0 3 -6 13 -14 21 -8 7 -16 19 -18 25 -3 9 -133 12
-514 13 -280 1 -519 0 -531 -2z"/>
<path d="M3741 3838 l-972 -972 -374 374 -374 374 -211 -209 c-116 -116 -215
-218 -221 -228 -9 -15 75 -103 585 -613 l595 -595 1196 1197 1196 1196 -223
224 c-123 123 -223 224 -224 224 0 0 -438 -437 -973 -972z"/>
</g>
</svg>
